<svg version="1.1" xmlns="http://www.w3.org/2000/svg" xmlns:xlink="http://www.w3.org/1999/xlink" width="24" height="24" viewBox="0,0,256,256"><g fill="#ffffff" fill-rule="nonzero" stroke="none" stroke-width="1" stroke-linecap="butt" stroke-linejoin="miter" stroke-miterlimit="10" stroke-dasharray="" stroke-dashoffset="0" font-family="none" font-weight="none" font-size="none" text-anchor="none" style="mix-blend-mode: normal"><g transform="translate(-1.49333,1.33333) scale(10.66667,10.66667)"><path d="M7.5,2c-1.79,1.15 -3,3.18 -3,5.5c0,2.32 1.21,4.35 3.03,5.5c-3.07,0 -5.53,-2.46 -5.53,-5.5c0,-3.03757 2.46243,-5.5 5.5,-5.5M19.07,3.5l1.43,1.43l-15.57,15.57l-1.43,-1.43l15.57,-15.57M12.89,5.93l-1.48,-0.93l-1.44,1l0.42,-1.7l-1.39,-1.06l1.75,-0.12l0.58,-1.65l0.67,1.63l1.73,0.03l-1.35,1.13l0.51,1.67M9.59,9.54l-1.16,-0.73l-1.12,0.78l0.34,-1.32l-1.09,-0.83l1.36,-0.09l0.45,-1.29l0.51,1.27l1.36,0.03l-1.05,0.87l0.4,1.31M19,13.5c0,3.03757 -2.46243,5.5 -5.5,5.5c-1.22,0 -2.35,-0.4 -3.26,-1.07l7.69,-7.69c0.67,0.91 1.07,2.04 1.07,3.26M14.6,20.08l2.77,-1.15l-0.24,3.35l-2.53,-2.2M18.93,17.38l1.15,-2.77l2.2,2.54l-3.35,0.23M20.08,12.42l-1.14,-2.78l3.34,0.24l-2.2,2.54M9.63,18.93l2.77,1.15l-2.53,2.19z"></path></g></g></svg>